<svg width="66" height="70" viewBox="0 0 66 70" fill="none" xmlns="http://www.w3.org/2000/svg">
<g clip-path="url(#clip0_2861_137055)">
<path d="M46.8665 0H13.1335C5.88007 0 0 5.88007 0 13.1335V46.8665C0 54.1199 5.88007 60 13.1335 60H46.8665C54.1199 60 60 54.1199 60 46.8665V13.1335C60 5.88007 54.1199 0 46.8665 0Z" fill="#6D5BF6"/>
<path d="M40.1335 45.6286C40.1115 45.6337 40.0895 45.6371 40.0676 45.6422C40.0102 45.6523 39.9511 45.6607 39.8937 45.6675C39.8565 45.6726 39.8193 45.6776 39.7805 45.681C39.7552 45.6827 39.7282 45.6827 39.7028 45.6844C39.6454 45.6877 39.588 45.6928 39.5289 45.6928C39.029 45.6928 38.5477 45.5662 38.1221 45.3314C37.8823 45.1997 37.6611 45.0342 37.4618 44.8366C37.325 44.6998 37.1325 44.6205 36.9383 44.6205C36.7441 44.6205 36.5533 44.6998 36.4148 44.8366C36.278 44.9734 36.1986 45.1659 36.1986 45.3601C36.1986 45.5543 36.278 45.7452 36.4148 45.8836C36.5583 46.0272 36.7137 46.1555 36.8725 46.2771C35.4066 48.6498 32.8431 50.0988 30.0279 50.0988C27.2127 50.0988 24.6306 48.6397 23.1665 46.2518C23.3134 46.1386 23.4552 46.0187 23.5887 45.8853C23.7255 45.7485 23.8048 45.556 23.8048 45.3618C23.8048 45.1676 23.7255 44.9768 23.5887 44.8383C23.4519 44.7015 23.2594 44.6221 23.0651 44.6221C22.8709 44.6221 22.6801 44.7015 22.5416 44.8383C22.3508 45.0291 22.1363 45.1896 21.9067 45.3179C21.4743 45.5628 20.9846 45.6945 20.4729 45.6945C20.4442 45.6945 20.4172 45.6911 20.3885 45.6911C20.3277 45.6911 20.2652 45.6878 20.2044 45.6827C20.1858 45.6827 20.1672 45.6793 20.1487 45.6776C20.0642 45.6692 19.9815 45.6574 19.897 45.6405H19.8953C19.4292 45.5493 18.9851 45.3449 18.6034 45.0308C18.1103 45.2267 17.6172 45.4226 17.1241 45.6185C17.2001 45.708 17.2761 45.7975 17.3605 45.882C18.5545 47.0759 20.2888 47.4593 21.8543 46.9307C21.8577 46.9374 21.8627 46.9425 21.8661 46.9476C23.587 49.8134 26.6504 51.5663 30.0228 51.5663C33.3953 51.5663 36.4486 49.8185 38.1711 46.9628C38.1745 46.956 38.1796 46.9509 38.1829 46.9442C39.7383 47.4508 41.4558 47.0607 42.6328 45.882C42.7139 45.8009 42.7865 45.7148 42.8608 45.6286C42.3677 45.4311 41.8729 45.2352 41.3798 45.0393C41.0099 45.3416 40.5793 45.5408 40.1267 45.6337L40.1335 45.6286Z" fill="white"/>
<path d="M47.6906 24.7708C46.9391 24.0193 46.0221 23.4991 45.0072 23.2424C45.0038 23.2424 45.0004 23.2407 44.9971 23.239C45.0646 22.0029 44.612 20.7971 43.722 19.9071C42.5433 18.7284 40.8258 18.3383 39.2722 18.8449C39.2688 18.8381 39.2637 18.8331 39.2603 18.8263C38.5072 17.5783 37.499 16.5414 36.3219 15.7697C36.9045 16.9873 37.4871 18.2065 38.0715 19.4241C38.1221 19.5305 38.1745 19.6386 38.2251 19.745C38.3231 19.9493 38.421 20.1554 38.5207 20.3597C38.5832 20.4053 38.649 20.4425 38.7233 20.4661C38.8821 20.5168 39.0526 20.51 39.208 20.4509C39.6352 20.2162 40.1149 20.0895 40.6147 20.0895C40.6721 20.0895 40.7296 20.0946 40.787 20.0979C40.814 20.0979 40.841 20.0996 40.8664 20.1013C40.9035 20.1047 40.9407 20.1098 40.9778 20.1131C41.0369 20.1199 41.0943 20.1283 41.1534 20.1385C41.1754 20.1419 41.1974 20.1469 41.2176 20.1503C41.7614 20.2618 42.2748 20.5269 42.6868 20.939C43.0803 21.3324 43.3404 21.8222 43.4603 22.3491C43.4704 22.3913 43.4806 22.4335 43.489 22.4774C43.4991 22.5331 43.5076 22.5872 43.5143 22.6429C43.5228 22.7054 43.5278 22.7696 43.5312 22.8337C43.5329 22.876 43.5363 22.9165 43.538 22.9587C43.538 22.9773 43.5414 22.9942 43.5414 23.0111C43.5414 23.234 43.5143 23.4501 43.4654 23.6629C43.3455 24.1949 43.0786 24.6846 42.6852 25.0798C42.3964 25.3686 42.3964 25.838 42.6852 26.1268C42.8219 26.2636 43.0145 26.343 43.2087 26.343C43.4029 26.343 43.5937 26.2636 43.7322 26.1268C44.1544 25.7046 44.4803 25.2115 44.6982 24.6728C45.4395 24.8704 46.1083 25.252 46.6588 25.8009C48.3729 27.515 48.3729 30.3048 46.6588 32.0189C46.3734 32.3043 46.3734 32.7687 46.6588 33.0558C47.4897 33.8867 47.9473 34.9911 47.9473 36.1648C47.9473 37.0312 47.6974 37.857 47.2347 38.5646C47.4711 39.056 47.7058 39.5491 47.9406 40.0422C49.8202 37.9161 49.8962 34.7429 48.1567 32.5374C49.9705 30.239 49.8168 26.8851 47.6957 24.764L47.6906 24.7708Z" fill="white"/>
<path d="M13.3446 33.0187C13.63 32.7333 13.63 32.2689 13.3446 31.9818C12.4867 31.1239 12.0595 29.9992 12.0595 28.8728C12.0595 27.7463 12.4884 26.6199 13.3446 25.7637C13.8935 25.2149 14.5639 24.8332 15.3053 24.6357C15.5231 25.1727 15.8491 25.6658 16.2712 26.088C16.408 26.2248 16.6006 26.3041 16.7948 26.3041C16.989 26.3041 17.1798 26.2248 17.3183 26.088C17.4551 25.9512 17.5344 25.7587 17.5344 25.5645C17.5344 25.3703 17.4551 25.1794 17.3183 25.041C16.9231 24.6458 16.658 24.156 16.5364 23.6241C16.4891 23.413 16.4604 23.1951 16.4604 22.9722C16.4604 22.9536 16.4621 22.9368 16.4638 22.9182C16.4638 22.8777 16.4671 22.8371 16.4705 22.7949C16.4739 22.7307 16.479 22.6649 16.4874 22.6007C16.4942 22.545 16.5026 22.4909 16.511 22.4369C16.5195 22.393 16.5296 22.3491 16.5398 22.3068C16.6597 21.7816 16.918 21.2936 17.3132 20.8984C17.7337 20.4779 18.2572 20.2111 18.8111 20.103H18.8128C18.8956 20.0861 18.98 20.0743 19.0645 20.0659C19.083 20.0642 19.1016 20.0625 19.1202 20.0608C19.181 20.0557 19.2418 20.0524 19.3026 20.0524C19.3313 20.0524 19.3583 20.049 19.387 20.049C19.6099 20.049 19.8295 20.076 20.0422 20.125C19.995 20.1317 19.946 20.1402 19.8987 20.1486C19.946 20.1385 19.995 20.1317 20.0422 20.125C20.3141 20.1875 20.5759 20.2888 20.8191 20.4256C20.9761 20.4897 21.1518 20.4999 21.3139 20.4475C21.3645 20.4306 21.4135 20.4087 21.4591 20.3817C21.5486 20.1942 21.6398 20.0051 21.7293 19.8176L21.9353 19.3853L23.6646 15.768C22.5095 16.538 21.5216 17.5631 20.7819 18.7959C20.7785 18.8027 20.7735 18.8077 20.7701 18.8128C19.2046 18.2825 17.4703 18.6676 16.2763 19.8615C15.3863 20.7515 14.9337 21.9573 15.0013 23.1934C14.9979 23.1934 14.9945 23.1951 14.9912 23.1968C13.9762 23.4552 13.0575 23.9753 12.3077 24.7252C10.1883 26.8462 10.0346 30.2001 11.8467 32.4985C11.0108 33.5591 10.5936 34.8425 10.5936 36.126C10.5936 37.5141 11.0884 38.9006 12.0679 40.0051C12.3027 39.5136 12.5374 39.0222 12.7738 38.5308C11.6592 36.8268 11.8501 34.5132 13.3463 33.017L13.3446 33.0187Z" fill="white"/>
<path d="M46.848 40.049C46.6116 39.5575 46.3768 39.0644 46.1421 38.5713C44.9768 36.1395 43.8133 33.7077 42.6514 31.2742C41.7631 29.4148 40.8765 27.5555 39.9865 25.6962C39.2046 24.0598 38.4194 22.4234 37.6358 20.7887C37.5682 20.6468 37.499 20.5049 37.4314 20.3614C37.3335 20.1571 37.2356 19.951 37.1359 19.7467C37.0853 19.6403 37.0329 19.5322 36.9822 19.4258C36.3979 18.2082 35.817 16.9889 35.2327 15.7713C34.3427 13.912 33.451 12.0544 32.5644 10.1951C32.0038 9.01968 31.1307 8.43537 29.9992 8.43874C28.8053 8.44888 27.917 9.0619 27.4289 10.2103C27.179 10.7996 26.897 11.3704 26.598 11.9733C26.4528 12.2655 26.3093 12.5576 26.1674 12.8532L24.7505 15.8169L23.0213 19.4343L22.8152 19.8666C22.7257 20.054 22.6345 20.2432 22.545 20.4306C22.4859 20.5539 22.4268 20.6755 22.3694 20.7988C19.5356 26.7263 16.6985 32.6539 13.8597 38.5798C13.625 39.0712 13.3902 39.5626 13.1538 40.054C12.9292 40.5235 12.7046 40.9913 12.48 41.4608C11.7082 43.0702 12.2503 44.1527 12.8397 44.7775C13.6892 45.6759 14.7902 45.86 16.1159 45.3264C16.4486 45.1929 16.783 45.0595 17.1173 44.9261L17.1258 44.9227C17.6189 44.7268 18.112 44.5309 18.6051 44.3351L18.6119 44.3317C19.5711 43.9517 20.5303 43.5751 21.471 43.207C23.7407 42.3153 26.088 41.3949 28.3864 40.4543C29.5061 39.9966 30.5295 40.0034 31.7032 40.4813C34.037 41.4287 36.4148 42.371 38.7166 43.283C39.6049 43.6342 40.4898 43.9889 41.3764 44.3418H41.3815C41.8746 44.5411 42.3694 44.7353 42.8625 44.9329L42.871 44.9363C43.2036 45.0697 43.538 45.1997 43.8707 45.3331C44.3604 45.5307 44.8232 45.6286 45.2555 45.6286C45.9462 45.6286 46.5626 45.377 47.0928 44.8738L47.1334 44.8332C48.4523 43.3978 47.765 41.9674 47.3107 41.0217C47.157 40.7008 47.0033 40.3783 46.848 40.0557V40.049ZM45.9107 43.6646C45.6067 43.9433 45.2437 44.0632 44.4989 43.7643C44.2355 43.6579 43.972 43.5548 43.7086 43.4501L43.6968 43.4451C43.2425 43.2644 42.7882 43.0837 42.3339 42.903H42.3305C41.3325 42.5044 40.3361 42.1059 39.3364 41.7107C37.0397 40.8005 34.6636 39.8598 32.3365 38.9158C31.5292 38.5882 30.7575 38.4244 29.9908 38.4244C29.2241 38.4244 28.5047 38.5798 27.7447 38.8905C25.4581 39.8261 23.1175 40.7464 20.8529 41.6347C19.8042 42.0468 18.7335 42.4673 17.6628 42.8912H17.6594C17.2052 43.0735 16.7509 43.2542 16.2966 43.4349L16.2848 43.44C16.018 43.5464 15.7511 43.6528 15.486 43.7592C14.6264 44.1054 14.3123 43.8791 14.0641 43.6156C13.8243 43.3606 13.5997 43.0195 13.9999 42.1869C14.162 41.8492 14.3224 41.5114 14.4846 41.1737C14.6973 40.7295 14.9101 40.2854 15.1229 39.8413C18.1981 33.4257 21.2683 27.0084 24.3368 20.5894L26.2265 16.6394L27.1722 14.6618L27.6907 13.5793C27.8275 13.2922 27.9693 13.0068 28.1112 12.7214C28.4084 12.1236 28.7141 11.5038 28.9843 10.8689C29.2443 10.2558 29.5855 10.1275 30.0178 10.1241C30.0229 10.1241 30.0279 10.1241 30.0313 10.1241C30.4248 10.1241 30.7321 10.2609 31.0462 10.9212C31.639 12.1641 32.2351 13.4054 32.8296 14.6483C33.142 15.3019 33.4544 15.9554 33.7668 16.609C34.3849 17.8992 34.9996 19.1894 35.6177 20.4779C36.5685 22.4605 37.5176 24.4431 38.4667 26.4274C39.3549 28.2851 40.2432 30.1444 41.1298 32.0037C42.3778 34.6179 43.6275 37.2304 44.8789 39.8413C45.0917 40.2854 45.3028 40.7295 45.5155 41.1737C45.6067 41.3645 45.6979 41.5554 45.7891 41.7462C46.2839 42.7746 46.3616 43.1597 45.9107 43.6646Z" fill="white"/>
</g>
<g clip-path="url(#clip1_2861_137055)">
<path d="M61.6667 50.5278H28.3334C26.1242 50.5278 24.3334 52.3186 24.3334 54.5278V65.1944C24.3334 67.4036 26.1242 69.1944 28.3334 69.1944H61.6667C63.8758 69.1944 65.6667 67.4036 65.6667 65.1944V54.5278C65.6667 52.3186 63.8758 50.5278 61.6667 50.5278Z" fill="#343539"/>
<path d="M33.5104 60.6372H31.5573L31.5469 59.4392H33.1302C33.415 59.4392 33.6424 59.408 33.8125 59.3455C33.9827 59.2795 34.1059 59.184 34.1823 59.059C34.2622 58.934 34.3021 58.7778 34.3021 58.5903C34.3021 58.375 34.2622 58.2014 34.1823 58.0694C34.1024 57.9375 33.9757 57.842 33.8021 57.783C33.632 57.7205 33.4115 57.6892 33.1406 57.6892H32.2448V63.8611H30.4167V56.2778H33.1406C33.6094 56.2778 34.0278 56.3212 34.3959 56.408C34.7639 56.4913 35.0764 56.6198 35.3334 56.7934C35.5938 56.967 35.7917 57.1858 35.9271 57.4497C36.0625 57.7101 36.1302 58.0174 36.1302 58.3715C36.1302 58.6806 36.0643 58.9705 35.9323 59.2413C35.8004 59.5122 35.5799 59.7326 35.2708 59.9028C34.9653 60.0694 34.5469 60.1563 34.0156 60.1632L33.5104 60.6372ZM33.4375 63.8611H31.1146L31.7396 62.4549H33.4375C33.6875 62.4549 33.8872 62.4167 34.0365 62.3403C34.1893 62.2604 34.2986 62.1563 34.3646 62.0278C34.434 61.8958 34.4688 61.75 34.4688 61.5903C34.4688 61.3958 34.4358 61.2274 34.3698 61.0851C34.3073 60.9427 34.2066 60.8333 34.0677 60.757C33.9288 60.6771 33.7431 60.6372 33.5104 60.6372H31.974L31.9844 59.4392H33.8229L34.25 59.9184C34.757 59.8976 35.158 59.9688 35.4531 60.132C35.7518 60.2951 35.9653 60.5104 36.0938 60.7778C36.2222 61.0451 36.2865 61.3247 36.2865 61.6163C36.2865 62.1128 36.1788 62.5278 35.9636 62.8611C35.7518 63.1944 35.434 63.4444 35.0104 63.6111C34.5868 63.7777 34.0625 63.8611 33.4375 63.8611ZM43.8542 62.4549V63.8611H39.8126V62.4549H43.8542ZM40.4636 56.2778V63.8611H38.6355V56.2778H40.4636ZM43.3334 59.2882V60.6476H39.8126V59.2882H43.3334ZM43.8698 56.2778V57.6892H39.8126V56.2778H43.8698ZM49.7136 56.2778V63.8611H47.8855V56.2778H49.7136ZM51.9948 56.2778V57.6892H45.6563V56.2778H51.9948ZM56.6823 57.8715L54.8334 63.8611H52.8698L55.6563 56.2778H56.9011L56.6823 57.8715ZM58.2136 63.8611L56.3594 57.8715L56.1198 56.2778H57.3803L60.1823 63.8611H58.2136ZM58.1407 61.033V62.4444H54.25V61.033H58.1407Z" fill="white"/>
</g>
<defs>
<clipPath id="clip0_2861_137055">
<rect width="60" height="60" fill="white"/>
</clipPath>
<clipPath id="clip1_2861_137055">
<rect width="42" height="20" fill="white" transform="translate(24 50)"/>
</clipPath>
</defs>
</svg>
